<svg width="423" height="49" viewBox="0 0 423 49" fill="none" xmlns="http://www.w3.org/2000/svg">
<mask id="path-1-outside-1_3_1105" maskUnits="userSpaceOnUse" x="0" y="-1" width="424" height="50" fill="black">
<rect fill="white" y="-1" width="424" height="50"/>
<path d="M0.728284 47V2.84H18.9083C24.6283 2.84 29.1283 4.12 32.4083 6.68C35.6883 9.2 37.3283 12.92 37.3283 17.84V18.8C37.3283 21.96 36.6283 24.62 35.2283 26.78C33.8283 28.94 31.8283 30.58 29.2283 31.7L39.9683 47H27.1283L18.2483 33.56H11.8883V47H0.728284ZM19.5683 12.2H11.8883V24.98H19.5683C21.5283 24.98 23.0883 24.42 24.2483 23.3C25.4483 22.14 26.0483 20.58 26.0483 18.62C26.0483 16.66 25.4483 15.1 24.2483 13.94C23.0883 12.78 21.5283 12.2 19.5683 12.2ZM60.8164 48.2C58.0164 48.2 55.5364 47.72 53.3764 46.76C51.2164 45.8 49.3964 44.5 47.9164 42.86C46.4364 41.22 45.2964 39.38 44.4964 37.34C43.7364 35.3 43.3564 33.2 43.3564 31.04V29.84C43.3564 27.6 43.7364 25.46 44.4964 23.42C45.2964 21.34 46.4164 19.5 47.8564 17.9C49.3364 16.3 51.1364 15.04 53.2564 14.12C55.3764 13.16 57.7764 12.68 60.4564 12.68C64.0164 12.68 67.0364 13.48 69.5164 15.08C71.9964 16.68 73.8964 18.8 75.2164 21.44C76.5364 24.04 77.1964 26.88 77.1964 29.96V33.44H53.6764C54.0364 35.32 54.7964 36.8 55.9564 37.88C57.1164 38.92 58.7364 39.44 60.8164 39.44C63.8564 39.44 65.7964 38.48 66.6364 36.56H76.5964C76.1164 38.8 75.1564 40.8 73.7164 42.56C72.3164 44.32 70.5164 45.7 68.3164 46.7C66.1564 47.7 63.6564 48.2 60.8164 48.2ZM60.4564 21.44C58.6564 21.44 57.1564 21.96 55.9564 23C54.7964 24 54.0364 25.52 53.6764 27.56H66.9364C66.2564 23.48 64.0964 21.44 60.4564 21.44ZM97.2922 48.08C92.4922 48.08 88.7122 47.1 85.9522 45.14C83.1922 43.14 81.7122 40.34 81.5122 36.74H91.1122C91.2722 37.74 91.8922 38.6 92.9722 39.32C94.0522 40.04 95.5722 40.4 97.5322 40.4C98.9322 40.4 100.132 40.2 101.132 39.8C102.172 39.36 102.692 38.66 102.692 37.7C102.692 36.86 102.292 36.18 101.492 35.66C100.692 35.1 99.2322 34.72 97.1122 34.52L94.8322 34.28C90.5922 33.84 87.4722 32.68 85.4722 30.8C83.4722 28.92 82.4722 26.56 82.4722 23.72C82.4722 21.28 83.0722 19.28 84.2722 17.72C85.4722 16.12 87.1322 14.92 89.2522 14.12C91.3722 13.32 93.7922 12.92 96.5122 12.92C100.952 12.92 104.532 13.9 107.252 15.86C109.972 17.78 111.412 20.56 111.572 24.2H101.972C101.812 23.2 101.272 22.36 100.352 21.68C99.4322 20.96 98.1122 20.6 96.3922 20.6C95.1522 20.6 94.1322 20.82 93.3322 21.26C92.5722 21.7 92.1922 22.32 92.1922 23.12C92.1922 23.96 92.5522 24.58 93.2722 24.98C94.0322 25.38 95.2322 25.68 96.8722 25.88L99.1522 26.12C103.392 26.56 106.652 27.74 108.932 29.66C111.252 31.54 112.412 34.02 112.412 37.1C112.412 40.5 111.052 43.18 108.332 45.14C105.652 47.1 101.972 48.08 97.2922 48.08ZM134.824 47.48C131.224 47.48 128.344 47.04 126.184 46.16C124.064 45.28 122.524 43.82 121.564 41.78C120.604 39.74 120.124 36.98 120.124 33.5V21.8H115.324V13.88H120.184V5.24H130.264V13.88H139.324V21.8H130.204V33.8C130.204 36.84 131.724 38.36 134.764 38.36H139.324V47.48H134.824ZM165.823 11.24C163.863 11.24 162.403 10.74 161.443 9.74C160.523 8.7 160.063 7.38 160.063 5.78C160.063 4.18 160.523 2.88 161.443 1.88C162.403 0.839997 163.863 0.319997 165.823 0.319997C167.823 0.319997 169.283 0.839997 170.203 1.88C171.123 2.88 171.583 4.18 171.583 5.78C171.583 7.38 171.123 8.7 170.203 9.74C169.283 10.74 167.823 11.24 165.823 11.24ZM161.383 47V21.8H157.183V13.88H172.303V47H161.383ZM181.53 47V13.88H190.17V22.58C190.81 19.3 192.07 16.86 193.95 15.26C195.83 13.62 198.27 12.8 201.27 12.8H201.75C205.51 12.8 208.41 14.06 210.45 16.58C212.53 19.06 213.57 22.88 213.57 28.04V47H202.65V27.74C202.65 26.22 202.19 24.98 201.27 24.02C200.39 23.02 199.17 22.52 197.61 22.52C196.05 22.52 194.79 23.02 193.83 24.02C192.91 24.98 192.45 26.26 192.45 27.86V47H181.53ZM236.031 47V2.84H252.891C256.651 2.84 259.891 3.48 262.611 4.76C265.371 6 267.491 7.8 268.971 10.16C270.451 12.52 271.191 15.34 271.191 18.62V19.58C271.191 22.82 270.451 25.62 268.971 27.98C267.491 30.34 265.371 32.16 262.611 33.44C259.891 34.72 256.651 35.36 252.891 35.36H247.191V47H236.031ZM253.191 12.44H247.191V25.76H253.191C255.231 25.76 256.851 25.18 258.051 24.02C259.291 22.82 259.911 21.18 259.911 19.1C259.911 16.98 259.291 15.34 258.051 14.18C256.851 13.02 255.231 12.44 253.191 12.44ZM292.487 48.2C289.687 48.2 287.207 47.72 285.047 46.76C282.887 45.8 281.067 44.5 279.587 42.86C278.107 41.22 276.967 39.38 276.167 37.34C275.407 35.3 275.027 33.2 275.027 31.04V29.84C275.027 27.6 275.407 25.46 276.167 23.42C276.967 21.34 278.087 19.5 279.527 17.9C281.007 16.3 282.807 15.04 284.927 14.12C287.047 13.16 289.447 12.68 292.127 12.68C295.687 12.68 298.707 13.48 301.187 15.08C303.667 16.68 305.567 18.8 306.887 21.44C308.207 24.04 308.867 26.88 308.867 29.96V33.44H285.347C285.707 35.32 286.467 36.8 287.627 37.88C288.787 38.92 290.407 39.44 292.487 39.44C295.527 39.44 297.467 38.48 298.307 36.56H308.267C307.787 38.8 306.827 40.8 305.387 42.56C303.987 44.32 302.187 45.7 299.987 46.7C297.827 47.7 295.327 48.2 292.487 48.2ZM292.127 21.44C290.327 21.44 288.827 21.96 287.627 23C286.467 24 285.707 25.52 285.347 27.56H298.607C297.927 23.48 295.767 21.44 292.127 21.44ZM325.362 47.84C321.842 47.84 318.962 46.92 316.722 45.08C314.522 43.2 313.422 40.6 313.422 37.28C313.422 34.8 314.082 32.8 315.402 31.28C316.722 29.72 318.542 28.58 320.862 27.86C323.182 27.14 325.842 26.78 328.842 26.78H334.062C334.022 25.26 333.642 24.16 332.922 23.48C332.242 22.76 331.122 22.4 329.562 22.4C328.802 22.4 327.682 22.42 326.202 22.46C324.722 22.5 323.162 22.56 321.522 22.64C319.882 22.72 318.382 22.8 317.022 22.88V13.76C317.982 13.68 319.122 13.6 320.442 13.52C321.762 13.44 323.122 13.38 324.522 13.34C325.962 13.3 327.282 13.28 328.482 13.28C333.602 13.28 337.542 14.4 340.302 16.64C343.102 18.88 344.502 22.3 344.502 26.9V47H335.862V40.88C335.142 43.12 333.902 44.84 332.142 46.04C330.382 47.24 328.122 47.84 325.362 47.84ZM328.842 40.52C330.242 40.52 331.422 40.12 332.382 39.32C333.382 38.48 333.942 36.96 334.062 34.76V32.42H328.842C327.362 32.42 326.222 32.8 325.422 33.56C324.622 34.28 324.222 35.26 324.222 36.5C324.222 37.7 324.622 38.68 325.422 39.44C326.222 40.16 327.362 40.52 328.842 40.52ZM368.119 48.2C365.239 48.2 362.739 47.74 360.619 46.82C358.499 45.86 356.719 44.58 355.279 42.98C353.879 41.38 352.819 39.56 352.099 37.52C351.419 35.48 351.079 33.36 351.079 31.16V29.96C351.079 26.88 351.719 24.04 352.999 21.44C354.319 18.8 356.239 16.68 358.759 15.08C361.319 13.48 364.439 12.68 368.119 12.68C371.159 12.68 373.839 13.28 376.159 14.48C378.479 15.68 380.319 17.34 381.679 19.46C383.079 21.54 383.859 23.94 384.019 26.66H373.339C373.219 25.34 372.719 24.22 371.839 23.3C370.999 22.38 369.759 21.92 368.119 21.92C366.039 21.92 364.499 22.72 363.499 24.32C362.499 25.88 361.999 27.96 361.999 30.56C361.999 33.04 362.439 35.06 363.319 36.62C364.239 38.18 365.839 38.96 368.119 38.96C369.799 38.96 371.079 38.52 371.959 37.64C372.879 36.76 373.419 35.56 373.579 34.04H384.259C384.099 36.84 383.299 39.3 381.859 41.42C380.459 43.54 378.579 45.2 376.219 46.4C373.859 47.6 371.159 48.2 368.119 48.2ZM406.536 48.2C403.736 48.2 401.256 47.72 399.096 46.76C396.936 45.8 395.116 44.5 393.636 42.86C392.156 41.22 391.016 39.38 390.216 37.34C389.456 35.3 389.076 33.2 389.076 31.04V29.84C389.076 27.6 389.456 25.46 390.216 23.42C391.016 21.34 392.136 19.5 393.576 17.9C395.056 16.3 396.856 15.04 398.976 14.12C401.096 13.16 403.496 12.68 406.176 12.68C409.736 12.68 412.756 13.48 415.236 15.08C417.716 16.68 419.616 18.8 420.936 21.44C422.256 24.04 422.916 26.88 422.916 29.96V33.44H399.396C399.756 35.32 400.516 36.8 401.676 37.88C402.836 38.92 404.456 39.44 406.536 39.44C409.576 39.44 411.516 38.48 412.356 36.56H422.316C421.836 38.8 420.876 40.8 419.436 42.56C418.036 44.32 416.236 45.7 414.036 46.7C411.876 47.7 409.376 48.2 406.536 48.2ZM406.176 21.44C404.376 21.44 402.876 21.96 401.676 23C400.516 24 399.756 25.52 399.396 27.56H412.656C411.976 23.48 409.816 21.44 406.176 21.44Z"/>
</mask>
<path d="M0.728284 47H0.228284V47.5H0.728284V47ZM0.728284 2.84V2.34H0.228284V2.84H0.728284ZM32.4083 6.68L32.1006 7.07417L32.1037 7.07649L32.4083 6.68ZM35.2283 26.78L35.6479 27.0519L35.2283 26.78ZM29.2283 31.7L29.0305 31.2408L28.4658 31.484L28.819 31.9873L29.2283 31.7ZM39.9683 47V47.5H40.9302L40.3775 46.7127L39.9683 47ZM27.1283 47L26.7111 47.2756L26.8594 47.5H27.1283V47ZM18.2483 33.56L18.6655 33.2844L18.5172 33.06H18.2483V33.56ZM11.8883 33.56V33.06H11.3883V33.56H11.8883ZM11.8883 47V47.5H12.3883V47H11.8883ZM11.8883 12.2V11.7H11.3883V12.2H11.8883ZM11.8883 24.98H11.3883V25.48H11.8883V24.98ZM24.2483 23.3L24.5956 23.6597L24.5958 23.6595L24.2483 23.3ZM24.2483 13.94L23.8947 14.2936L23.9008 14.2995L24.2483 13.94ZM1.22828 47V2.84H0.228284V47H1.22828ZM0.728284 3.34H18.9083V2.34H0.728284V3.34ZM18.9083 3.34C24.558 3.34 28.9363 4.6044 32.1007 7.07416L32.7159 6.28584C29.3203 3.63559 24.6985 2.34 18.9083 2.34V3.34ZM32.1037 7.07649C35.2365 9.48339 36.8283 13.0423 36.8283 17.84H37.8283C37.8283 12.7977 36.1401 8.9166 32.7129 6.2835L32.1037 7.07649ZM36.8283 17.84V18.8H37.8283V17.84H36.8283ZM36.8283 18.8C36.8283 21.8856 36.1454 24.4458 34.8087 26.5081L35.6479 27.0519C37.1112 24.7942 37.8283 22.0344 37.8283 18.8H36.8283ZM34.8087 26.5081C33.4678 28.5768 31.5491 30.1558 29.0305 31.2408L29.4261 32.1592C32.1075 31.0042 34.1888 29.3032 35.6479 27.0519L34.8087 26.5081ZM28.819 31.9873L39.559 47.2873L40.3775 46.7127L29.6375 31.4127L28.819 31.9873ZM39.9683 46.5H27.1283V47.5H39.9683V46.5ZM27.5455 46.7244L18.6655 33.2844L17.8311 33.8356L26.7111 47.2756L27.5455 46.7244ZM18.2483 33.06H11.8883V34.06H18.2483V33.06ZM11.3883 33.56V47H12.3883V33.56H11.3883ZM11.8883 46.5H0.728284V47.5H11.8883V46.5ZM19.5683 11.7H11.8883V12.7H19.5683V11.7ZM11.3883 12.2V24.98H12.3883V12.2H11.3883ZM11.8883 25.48H19.5683V24.48H11.8883V25.48ZM19.5683 25.48C21.6282 25.48 23.323 24.8884 24.5956 23.6597L23.901 22.9403C22.8535 23.9516 21.4283 24.48 19.5683 24.48V25.48ZM24.5958 23.6595C25.9102 22.3889 26.5483 20.6899 26.5483 18.62H25.5483C25.5483 20.4701 24.9863 21.8911 23.9008 22.9405L24.5958 23.6595ZM26.5483 18.62C26.5483 16.5501 25.9102 14.8511 24.5958 13.5805L23.9008 14.2995C24.9863 15.3489 25.5483 16.7699 25.5483 18.62H26.5483ZM24.6018 13.5864C23.3302 12.3148 21.6332 11.7 19.5683 11.7V12.7C21.4234 12.7 22.8464 13.2452 23.8947 14.2936L24.6018 13.5864ZM53.3764 46.76L53.1733 47.2169L53.3764 46.76ZM47.9164 42.86L48.2876 42.525L47.9164 42.86ZM44.4964 37.34L44.0278 37.5146L44.0309 37.5225L44.4964 37.34ZM44.4964 23.42L44.0297 23.2405L44.0279 23.2454L44.4964 23.42ZM47.8564 17.9L47.4893 17.5604L47.4848 17.5655L47.8564 17.9ZM53.2564 14.12L53.4555 14.5787L53.4627 14.5755L53.2564 14.12ZM69.5164 15.08L69.2453 15.5001L69.5164 15.08ZM75.2164 21.44L74.7692 21.6636L74.7706 21.6663L75.2164 21.44ZM77.1964 33.44V33.94H77.6964V33.44H77.1964ZM53.6764 33.44V32.94H53.0716L53.1853 33.534L53.6764 33.44ZM55.9564 37.88L55.6156 38.246L55.6226 38.2523L55.9564 37.88ZM66.6364 36.56V36.06H66.3094L66.1783 36.3596L66.6364 36.56ZM76.5964 36.56L77.0853 36.6648L77.2149 36.06H76.5964V36.56ZM73.7164 42.56L73.3294 42.2434L73.3251 42.2487L73.7164 42.56ZM68.3164 46.7L68.1095 46.2448L68.1063 46.2463L68.3164 46.7ZM55.9564 23L56.2829 23.3787L56.2839 23.3778L55.9564 23ZM53.6764 27.56L53.184 27.4731L53.0805 28.06H53.6764V27.56ZM66.9364 27.56V28.06H67.5266L67.4296 27.4778L66.9364 27.56ZM60.8164 47.7C58.0736 47.7 55.6649 47.2299 53.5795 46.3031L53.1733 47.2169C55.408 48.2101 57.9592 48.7 60.8164 48.7V47.7ZM53.5795 46.3031C51.4789 45.3695 49.7175 44.1095 48.2876 42.525L47.5452 43.195C49.0753 44.8905 50.9539 46.2305 53.1733 47.2169L53.5795 46.3031ZM48.2876 42.525C46.8476 40.9294 45.7397 39.1409 44.9619 37.1575L44.0309 37.5225C44.8531 39.6191 46.0252 41.5106 47.5452 43.195L48.2876 42.525ZM44.965 37.1654C44.2256 35.1808 43.8564 33.1399 43.8564 31.04H42.8564C42.8564 33.2601 43.2472 35.4192 44.0279 37.5146L44.965 37.1654ZM43.8564 31.04V29.84H42.8564V31.04H43.8564ZM43.8564 29.84C43.8564 27.6578 44.2264 25.5771 44.965 23.5946L44.0279 23.2454C43.2465 25.3429 42.8564 27.5422 42.8564 29.84H43.8564ZM44.9631 23.5995C45.7419 21.5745 46.8304 19.7875 48.2281 18.2345L47.4848 17.5655C46.0024 19.2125 44.8509 21.1055 44.0297 23.2405L44.9631 23.5995ZM48.2235 18.2395C49.6535 16.6935 51.3952 15.4727 53.4555 14.5787L53.0574 13.6613C50.8776 14.6073 49.0193 15.9065 47.4894 17.5605L48.2235 18.2395ZM53.4627 14.5755C55.5087 13.6489 57.8368 13.18 60.4564 13.18V12.18C57.716 12.18 55.2441 12.671 53.0502 13.6645L53.4627 14.5755ZM60.4564 13.18C63.9403 13.18 66.8615 13.9622 69.2453 15.5001L69.7875 14.6599C67.2114 12.9978 64.0925 12.18 60.4564 12.18V13.18ZM69.2453 15.5001C71.6501 17.0516 73.4893 19.1037 74.7692 21.6636L75.6636 21.2164C74.3036 18.4963 72.3427 16.3084 69.7875 14.6599L69.2453 15.5001ZM74.7706 21.6663C76.053 24.1923 76.6964 26.9541 76.6964 29.96H77.6964C77.6964 26.8059 77.0199 23.8877 75.6622 21.2137L74.7706 21.6663ZM76.6964 29.96V33.44H77.6964V29.96H76.6964ZM77.1964 32.94H53.6764V33.94H77.1964V32.94ZM53.1853 33.534C53.5611 35.4962 54.3629 37.0796 55.6157 38.2459L56.2971 37.5141C55.2299 36.5204 54.5118 35.1438 54.1675 33.346L53.1853 33.534ZM55.6226 38.2523C56.9014 39.3988 58.6552 39.94 60.8164 39.94V38.94C58.8177 38.94 57.3314 38.4412 56.2902 37.5077L55.6226 38.2523ZM60.8164 39.94C63.9512 39.94 66.1402 38.9416 67.0945 36.7604L66.1783 36.3596C65.4526 38.0184 63.7616 38.94 60.8164 38.94V39.94ZM66.6364 37.06H76.5964V36.06H66.6364V37.06ZM76.1075 36.4552C75.644 38.6181 74.7187 40.5454 73.3294 42.2434L74.1034 42.8766C75.5941 41.0546 76.5888 38.9819 77.0853 36.6648L76.1075 36.4552ZM73.3251 42.2487C71.978 43.9423 70.243 45.275 68.1095 46.2448L68.5233 47.1552C70.7898 46.125 72.6549 44.6977 74.1077 42.8713L73.3251 42.2487ZM68.1063 46.2463C66.0237 47.2105 63.5977 47.7 60.8164 47.7V48.7C63.7151 48.7 66.2892 48.1895 68.5265 47.1537L68.1063 46.2463ZM60.4564 20.94C58.5532 20.94 56.932 21.4928 55.6289 22.6222L56.2839 23.3778C57.3808 22.4272 58.7596 21.94 60.4564 21.94V20.94ZM55.6299 22.6213C54.3562 23.7193 53.557 25.3596 53.184 27.4731L54.1688 27.6469C54.5158 25.6804 55.2366 24.2807 56.2829 23.3787L55.6299 22.6213ZM53.6764 28.06H66.9364V27.06H53.6764V28.06ZM67.4296 27.4778C67.0786 25.3715 66.3349 23.7258 65.1497 22.6065C63.957 21.48 62.3738 20.94 60.4564 20.94V21.94C62.179 21.94 63.4958 22.42 64.4631 23.3335C65.4379 24.2542 66.1143 25.6685 66.4432 27.6422L67.4296 27.4778ZM85.9522 45.14L85.6588 45.5449L85.6627 45.5477L85.9522 45.14ZM81.5122 36.74V36.24H80.9836L81.013 36.7677L81.5122 36.74ZM91.1122 36.74L91.6059 36.661L91.5386 36.24H91.1122V36.74ZM92.9722 39.32L93.2495 38.904L92.9722 39.32ZM101.132 39.8L101.318 40.2643L101.327 40.2605L101.132 39.8ZM101.492 35.66L101.205 36.0696L101.213 36.0745L101.22 36.0792L101.492 35.66ZM97.1122 34.52L97.0598 35.0173L97.0652 35.0178L97.1122 34.52ZM94.8322 34.28L94.8845 33.7827L94.8838 33.7827L94.8322 34.28ZM85.4722 30.8L85.8146 30.4357L85.4722 30.8ZM84.2722 17.72L84.6685 18.0249L84.6722 18.02L84.2722 17.72ZM89.2522 14.12L89.0757 13.6522L89.2522 14.12ZM107.252 15.86L106.96 16.2657L106.964 16.2685L107.252 15.86ZM111.572 24.2V24.7H112.095L112.072 24.178L111.572 24.2ZM101.972 24.2L101.478 24.279L101.546 24.7H101.972V24.2ZM100.352 21.68L100.044 22.0739L100.055 22.0821L100.352 21.68ZM93.3322 21.26L93.0912 20.8218L93.0817 20.8273L93.3322 21.26ZM93.2722 24.98L93.0293 25.4172L93.0393 25.4225L93.2722 24.98ZM96.8722 25.88L96.8117 26.3764L96.8199 26.3773L96.8722 25.88ZM99.1522 26.12L99.0999 26.6173L99.1006 26.6173L99.1522 26.12ZM108.932 29.66L108.61 30.0425L108.617 30.0485L108.932 29.66ZM108.332 45.14L108.04 44.7343L108.037 44.7364L108.332 45.14ZM97.2922 47.58C92.5541 47.58 88.8884 46.6119 86.2417 44.7323L85.6627 45.5477C88.536 47.5881 92.4303 48.58 97.2922 48.58V47.58ZM86.2456 44.7351C83.6153 42.8292 82.2036 40.172 82.0114 36.7123L81.013 36.7677C81.2208 40.508 82.769 43.4508 85.6588 45.5449L86.2456 44.7351ZM81.5122 37.24H91.1122V36.24H81.5122V37.24ZM90.6185 36.819C90.8063 37.9929 91.5335 38.9618 92.6948 39.736L93.2495 38.904C92.2508 38.2382 91.7381 37.4871 91.6059 36.661L90.6185 36.819ZM92.6948 39.736C93.889 40.5321 95.5206 40.9 97.5322 40.9V39.9C95.6238 39.9 94.2154 39.5479 93.2495 38.904L92.6948 39.736ZM97.5322 40.9C98.9776 40.9 100.244 40.6938 101.318 40.2642L100.946 39.3358C100.02 39.7062 98.8867 39.9 97.5322 39.9V40.9ZM101.327 40.2605C101.905 40.0158 102.377 39.6829 102.704 39.2432C103.034 38.7982 103.192 38.276 103.192 37.7H102.192C102.192 38.084 102.09 38.3918 101.901 38.6468C101.707 38.9071 101.399 39.1442 100.937 39.3395L101.327 40.2605ZM103.192 37.7C103.192 36.6654 102.684 35.8383 101.765 35.2408L101.22 36.0792C101.9 36.5217 102.192 37.0546 102.192 37.7H103.192ZM101.779 35.2504C100.863 34.6093 99.2859 34.2229 97.1592 34.0222L97.0652 35.0178C99.1784 35.2171 100.521 35.5907 101.205 36.0696L101.779 35.2504ZM97.1645 34.0227L94.8845 33.7827L94.7799 34.7773L97.0599 35.0173L97.1645 34.0227ZM94.8838 33.7827C90.6961 33.3481 87.7015 32.2094 85.8146 30.4357L85.1297 31.1643C87.2429 33.1506 90.4882 34.3319 94.7806 34.7773L94.8838 33.7827ZM85.8146 30.4357C83.919 28.6538 82.9722 26.4274 82.9722 23.72H81.9722C81.9722 26.6926 83.0253 29.1862 85.1297 31.1643L85.8146 30.4357ZM82.9722 23.72C82.9722 21.3633 83.5505 19.4782 84.6685 18.0249L83.8759 17.4151C82.5939 19.0818 81.9722 21.1967 81.9722 23.72H82.9722ZM84.6722 18.02C85.8078 16.5058 87.3855 15.3588 89.4287 14.5878L89.0757 13.6522C86.8789 14.4812 85.1365 15.7342 83.8722 17.42L84.6722 18.02ZM89.4287 14.5878C91.4822 13.8129 93.8407 13.42 96.5122 13.42V12.42C93.7437 12.42 91.2621 12.8271 89.0757 13.6522L89.4287 14.5878ZM96.5122 13.42C100.881 13.42 104.349 14.3841 106.96 16.2657L107.545 15.4543C104.716 13.4159 101.023 12.42 96.5122 12.42V13.42ZM106.964 16.2685C109.544 18.09 110.919 20.7198 111.073 24.222L112.072 24.178C111.906 20.4002 110.4 17.47 107.541 15.4515L106.964 16.2685ZM111.572 23.7H101.972V24.7H111.572V23.7ZM102.466 24.121C102.282 22.9746 101.66 22.0248 100.649 21.2779L100.055 22.0821C100.885 22.6952 101.342 23.4254 101.478 24.279L102.466 24.121ZM100.66 21.2862C99.6194 20.4716 98.1731 20.1 96.3922 20.1V21.1C98.0513 21.1 99.245 21.4484 100.044 22.0737L100.66 21.2862ZM96.3922 20.1C95.0968 20.1 93.9868 20.3293 93.0912 20.8219L93.5732 21.6981C94.2776 21.3107 95.2076 21.1 96.3922 21.1V20.1ZM93.0817 20.8273C92.1856 21.3461 91.6922 22.1214 91.6922 23.12H92.6922C92.6922 22.5186 92.9588 22.0539 93.5827 21.6927L93.0817 20.8273ZM91.6922 23.12C91.6922 23.6129 91.7984 24.0676 92.0298 24.4661C92.2615 24.865 92.6025 25.1799 93.0294 25.4171L93.515 24.5429C93.2219 24.3801 93.0229 24.185 92.8946 23.9639C92.766 23.7424 92.6922 23.4671 92.6922 23.12H91.6922ZM93.0393 25.4225C93.8823 25.8661 95.1565 26.1745 96.8117 26.3763L96.9327 25.3837C95.3079 25.1855 94.1821 24.8939 93.5051 24.5375L93.0393 25.4225ZM96.8199 26.3773L99.0999 26.6173L99.2045 25.6227L96.9245 25.3827L96.8199 26.3773ZM99.1006 26.6173C103.282 27.0512 106.433 28.2092 108.61 30.0425L109.254 29.2775C106.871 27.2708 103.502 26.0688 99.2038 25.6227L99.1006 26.6173ZM108.617 30.0485C110.816 31.8301 111.912 34.1653 111.912 37.1H112.912C112.912 33.8747 111.688 31.2499 109.247 29.2715L108.617 30.0485ZM111.912 37.1C111.912 40.342 110.627 42.8699 108.04 44.7343L108.625 45.5457C111.477 43.4901 112.912 40.658 112.912 37.1H111.912ZM108.037 44.7364C105.471 46.6128 101.908 47.58 97.2922 47.58V48.58C102.036 48.58 105.833 47.5872 108.627 45.5436L108.037 44.7364ZM126.184 46.16L125.992 46.6218L125.995 46.623L126.184 46.16ZM121.564 41.78L121.111 41.9929L121.564 41.78ZM120.124 21.8H120.624V21.3H120.124V21.8ZM115.324 21.8H114.824V22.3H115.324V21.8ZM115.324 13.88V13.38H114.824V13.88H115.324ZM120.184 13.88V14.38H120.684V13.88H120.184ZM120.184 5.24V4.74H119.684V5.24H120.184ZM130.264 5.24H130.764V4.74H130.264V5.24ZM130.264 13.88H129.764V14.38H130.264V13.88ZM139.324 13.88H139.824V13.38H139.324V13.88ZM139.324 21.8V22.3H139.824V21.8H139.324ZM130.204 21.8V21.3H129.704V21.8H130.204ZM139.324 38.36H139.824V37.86H139.324V38.36ZM139.324 47.48V47.98H139.824V47.48H139.324ZM134.824 46.98C131.257 46.98 128.449 46.543 126.372 45.697L125.995 46.623C128.238 47.537 131.19 47.98 134.824 47.98V46.98ZM126.375 45.6982C124.368 44.8649 122.922 43.4924 122.016 41.5671L121.111 41.9929C122.125 44.1476 123.759 45.6951 125.992 46.6218L126.375 45.6982ZM122.016 41.5671C121.1 39.62 120.624 36.9425 120.624 33.5H119.624C119.624 37.0175 120.107 39.86 121.111 41.9929L122.016 41.5671ZM120.624 33.5V21.8H119.624V33.5H120.624ZM120.124 21.3H115.324V22.3H120.124V21.3ZM115.824 21.8V13.88H114.824V21.8H115.824ZM115.324 14.38H120.184V13.38H115.324V14.38ZM120.684 13.88V5.24H119.684V13.88H120.684ZM120.184 5.74H130.264V4.74H120.184V5.74ZM129.764 5.24V13.88H130.764V5.24H129.764ZM130.264 14.38H139.324V13.38H130.264V14.38ZM138.824 13.88V21.8H139.824V13.88H138.824ZM139.324 21.3H130.204V22.3H139.324V21.3ZM129.704 21.8V33.8H130.704V21.8H129.704ZM129.704 33.8C129.704 35.3971 130.103 36.6867 130.99 37.5736C131.877 38.4604 133.167 38.86 134.764 38.86V37.86C133.321 37.86 132.33 37.4996 131.697 36.8664C131.064 36.2333 130.704 35.2429 130.704 33.8H129.704ZM134.764 38.86H139.324V37.86H134.764V38.86ZM138.824 38.36V47.48H139.824V38.36H138.824ZM139.324 46.98H134.824V47.98H139.324V46.98ZM161.443 9.74L161.068 10.0713L161.075 10.0789L161.082 10.0863L161.443 9.74ZM161.443 1.88L161.075 1.54086L161.075 1.54147L161.443 1.88ZM170.202 1.88L169.828 2.21135L169.835 2.21853L170.202 1.88ZM170.202 9.74L170.571 10.0786L170.577 10.0713L170.202 9.74ZM161.383 47H160.883V47.5H161.383V47ZM161.383 21.8H161.883V21.3H161.383V21.8ZM157.183 21.8H156.683V22.3H157.183V21.8ZM157.183 13.88V13.38H156.683V13.88H157.183ZM172.303 13.88H172.803V13.38H172.303V13.88ZM172.303 47V47.5H172.803V47H172.303ZM165.823 10.74C163.941 10.74 162.635 10.2607 161.803 9.39373L161.082 10.0863C162.17 11.2193 163.784 11.74 165.823 11.74V10.74ZM161.817 9.40871C160.99 8.47392 160.562 7.27773 160.562 5.78H159.562C159.562 7.48226 160.055 8.92607 161.068 10.0713L161.817 9.40871ZM160.562 5.78C160.562 4.28174 160.99 3.11018 161.81 2.21853L161.075 1.54147C160.055 2.64981 159.562 4.07825 159.562 5.78H160.562ZM161.81 2.21914C162.643 1.31633 163.947 0.819997 165.823 0.819997V-0.180003C163.778 -0.180003 162.162 0.363666 161.075 1.54086L161.81 2.21914ZM165.823 0.819997C167.744 0.819997 169.039 1.31895 169.828 2.21128L170.577 1.54871C169.526 0.361048 167.901 -0.180003 165.823 -0.180003V0.819997ZM169.835 2.21853C170.655 3.11018 171.083 4.28174 171.083 5.78H172.083C172.083 4.07825 171.59 2.64981 170.57 1.54147L169.835 2.21853ZM171.083 5.78C171.083 7.27773 170.655 8.47392 169.828 9.40871L170.577 10.0713C171.59 8.92607 172.083 7.48226 172.083 5.78H171.083ZM169.835 9.40147C169.046 10.2581 167.749 10.74 165.823 10.74V11.74C167.896 11.74 169.519 11.2219 170.57 10.0785L169.835 9.40147ZM161.883 47V21.8H160.883V47H161.883ZM161.383 21.3H157.183V22.3H161.383V21.3ZM157.683 21.8V13.88H156.683V21.8H157.683ZM157.183 14.38H172.303V13.38H157.183V14.38ZM171.803 13.88V47H172.803V13.88H171.803ZM172.303 46.5H161.383V47.5H172.303V46.5ZM181.53 47H181.03V47.5H181.53V47ZM181.53 13.88V13.38H181.03V13.88H181.53ZM190.17 13.88H190.67V13.38H190.17V13.88ZM190.17 22.58H189.67L190.661 22.6758L190.17 22.58ZM193.95 15.26L194.274 15.6408L194.279 15.6368L193.95 15.26ZM210.45 16.58L210.062 16.8946L210.067 16.9013L210.45 16.58ZM213.57 47V47.5H214.07V47H213.57ZM202.65 47H202.15V47.5H202.65V47ZM201.27 24.02L200.895 24.3503L200.902 24.3583L200.909 24.366L201.27 24.02ZM193.83 24.02L193.47 23.6737L193.469 23.674L193.83 24.02ZM192.45 47V47.5H192.95V47H192.45ZM182.03 47V13.88H181.03V47H182.03ZM181.53 14.38H190.17V13.38H181.53V14.38ZM189.67 13.88V22.58H190.67V13.88H189.67ZM190.661 22.6758C191.287 19.4678 192.507 17.1452 194.274 15.6408L193.626 14.8792C191.634 16.5748 190.334 19.1322 189.68 22.4842L190.661 22.6758ZM194.279 15.6368C196.05 14.0916 198.366 13.3 201.27 13.3V12.3C198.175 12.3 195.61 13.1484 193.622 14.8832L194.279 15.6368ZM201.27 13.3H201.75V12.3H201.27V13.3ZM201.75 13.3C205.386 13.3 208.132 14.5114 210.062 16.8946L210.839 16.2654C208.688 13.6086 205.634 12.3 201.75 12.3V13.3ZM210.067 16.9013C212.038 19.2513 213.07 22.9319 213.07 28.04H214.07C214.07 22.8281 213.022 18.8687 210.833 16.2587L210.067 16.9013ZM213.07 28.04V47H214.07V28.04H213.07ZM213.57 46.5H202.65V47.5H213.57V46.5ZM203.15 47V27.74H202.15V47H203.15ZM203.15 27.74C203.15 26.111 202.653 24.7406 201.631 23.674L200.909 24.366C201.727 25.2194 202.15 26.329 202.15 27.74H203.15ZM201.646 23.6897C200.654 22.563 199.287 22.02 197.61 22.02V23.02C199.054 23.02 200.126 23.477 200.895 24.3503L201.646 23.6897ZM197.61 22.02C195.933 22.02 194.536 22.5628 193.47 23.6737L194.191 24.3663C195.044 23.4772 196.168 23.02 197.61 23.02V22.02ZM193.469 23.674C192.443 24.7455 191.95 26.1589 191.95 27.86H192.95C192.95 26.3611 193.378 25.2145 194.191 24.366L193.469 23.674ZM191.95 27.86V47H192.95V27.86H191.95ZM192.45 46.5H181.53V47.5H192.45V46.5ZM236.031 47H235.531V47.5H236.031V47ZM236.031 2.84V2.34H235.531V2.84H236.031ZM262.611 4.76L262.398 5.21248L262.406 5.21608L262.611 4.76ZM268.971 27.98L269.395 28.2456L268.971 27.98ZM262.611 33.44L262.401 32.9864L262.399 32.9876L262.611 33.44ZM247.191 35.36V34.86H246.691V35.36H247.191ZM247.191 47V47.5H247.691V47H247.191ZM247.191 12.44V11.94H246.691V12.44H247.191ZM247.191 25.76H246.691V26.26H247.191V25.76ZM258.051 24.02L258.399 24.3795L258.399 24.3793L258.051 24.02ZM258.051 14.18L257.704 14.5395L257.71 14.5451L258.051 14.18ZM236.531 47V2.84H235.531V47H236.531ZM236.031 3.34H252.891V2.34H236.031V3.34ZM252.891 3.34C256.596 3.34 259.76 3.97058 262.399 5.21241L262.824 4.30759C260.023 2.98941 256.707 2.34 252.891 2.34V3.34ZM262.406 5.21608C265.085 6.41924 267.125 8.15657 268.548 10.4256L269.395 9.89435C267.858 7.44343 265.658 5.58075 262.816 4.30391L262.406 5.21608ZM268.548 10.4256C269.97 12.6928 270.691 15.417 270.691 18.62H271.691C271.691 15.2629 270.933 12.3472 269.395 9.89435L268.548 10.4256ZM270.691 18.62V19.58H271.691V18.62H270.691ZM270.691 19.58C270.691 22.7416 269.97 25.4462 268.548 27.7144L269.395 28.2456C270.933 25.7938 271.691 22.8984 271.691 19.58H270.691ZM268.548 27.7144C267.124 29.9849 265.082 31.7432 262.401 32.9864L262.822 33.8936C265.661 32.5768 267.859 30.6951 269.395 28.2456L268.548 27.7144ZM262.399 32.9876C259.76 34.2294 256.596 34.86 252.891 34.86V35.86C256.707 35.86 260.023 35.2106 262.824 33.8924L262.399 32.9876ZM252.891 34.86H247.191V35.86H252.891V34.86ZM246.691 35.36V47H247.691V35.36H246.691ZM247.191 46.5H236.031V47.5H247.191V46.5ZM253.191 11.94H247.191V12.94H253.191V11.94ZM246.691 12.44V25.76H247.691V12.44H246.691ZM247.191 26.26H253.191V25.26H247.191V26.26ZM253.191 26.26C255.331 26.26 257.086 25.6488 258.399 24.3795L257.704 23.6605C256.617 24.7112 255.132 25.26 253.191 25.26V26.26ZM258.399 24.3793C259.756 23.0662 260.411 21.2856 260.411 19.1H259.411C259.411 21.0744 258.827 22.5738 257.704 23.6607L258.399 24.3793ZM260.411 19.1C260.411 16.8783 259.758 15.0919 258.393 13.8149L257.71 14.5451C258.825 15.5881 259.411 17.0817 259.411 19.1H260.411ZM258.399 13.8205C257.086 12.5512 255.331 11.94 253.191 11.94V12.94C255.132 12.94 256.617 13.4888 257.704 14.5395L258.399 13.8205ZM285.047 46.76L284.844 47.2169L285.047 46.76ZM279.587 42.86L279.958 42.525L279.587 42.86ZM276.167 37.34L275.698 37.5146L275.701 37.5225L276.167 37.34ZM276.167 23.42L275.7 23.2405L275.698 23.2454L276.167 23.42ZM279.527 17.9L279.16 17.5604L279.155 17.5655L279.527 17.9ZM284.927 14.12L285.126 14.5787L285.133 14.5755L284.927 14.12ZM301.187 15.08L300.916 15.5001L301.187 15.08ZM306.887 21.44L306.439 21.6636L306.441 21.6663L306.887 21.44ZM308.867 33.44V33.94H309.367V33.44H308.867ZM285.347 33.44V32.94H284.742L284.856 33.534L285.347 33.44ZM287.627 37.88L287.286 38.246L287.293 38.2523L287.627 37.88ZM298.307 36.56V36.06H297.98L297.849 36.3596L298.307 36.56ZM308.267 36.56L308.756 36.6648L308.885 36.06H308.267V36.56ZM305.387 42.56L305 42.2434L304.995 42.2487L305.387 42.56ZM299.987 46.7L299.78 46.2448L299.777 46.2463L299.987 46.7ZM287.627 23L287.953 23.3787L287.954 23.3778L287.627 23ZM285.347 27.56L284.854 27.4731L284.751 28.06H285.347V27.56ZM298.607 27.56V28.06H299.197L299.1 27.4778L298.607 27.56ZM292.487 47.7C289.744 47.7 287.335 47.2299 285.25 46.3031L284.844 47.2169C287.078 48.2101 289.629 48.7 292.487 48.7V47.7ZM285.25 46.3031C283.149 45.3695 281.388 44.1095 279.958 42.525L279.215 43.195C280.746 44.8905 282.624 46.2305 284.844 47.2169L285.25 46.3031ZM279.958 42.525C278.518 40.9294 277.41 39.1409 276.632 37.1575L275.701 37.5225C276.523 39.6191 277.695 41.5106 279.215 43.195L279.958 42.525ZM276.635 37.1654C275.896 35.1808 275.527 33.1399 275.527 31.04H274.527C274.527 33.2601 274.918 35.4192 275.698 37.5146L276.635 37.1654ZM275.527 31.04V29.84H274.527V31.04H275.527ZM275.527 29.84C275.527 27.6578 275.897 25.5771 276.635 23.5946L275.698 23.2454C274.917 25.3429 274.527 27.5422 274.527 29.84H275.527ZM276.633 23.5995C277.412 21.5745 278.501 19.7875 279.898 18.2345L279.155 17.5655C277.673 19.2125 276.521 21.1055 275.7 23.2405L276.633 23.5995ZM279.894 18.2395C281.324 16.6935 283.065 15.4727 285.126 14.5787L284.728 13.6613C282.548 14.6073 280.69 15.9065 279.16 17.5605L279.894 18.2395ZM285.133 14.5755C287.179 13.6489 289.507 13.18 292.127 13.18V12.18C289.386 12.18 286.914 12.671 284.72 13.6645L285.133 14.5755ZM292.127 13.18C295.611 13.18 298.532 13.9622 300.916 15.5001L301.458 14.6599C298.882 12.9978 295.763 12.18 292.127 12.18V13.18ZM300.916 15.5001C303.32 17.0516 305.16 19.1037 306.439 21.6636L307.334 21.2164C305.974 18.4963 304.013 16.3084 301.458 14.6599L300.916 15.5001ZM306.441 21.6663C307.723 24.1923 308.367 26.9541 308.367 29.96H309.367C309.367 26.8059 308.69 23.8877 307.333 21.2137L306.441 21.6663ZM308.367 29.96V33.44H309.367V29.96H308.367ZM308.867 32.94H285.347V33.94H308.867V32.94ZM284.856 33.534C285.231 35.4962 286.033 37.0796 287.286 38.2459L287.967 37.5141C286.9 36.5204 286.182 35.1438 285.838 33.346L284.856 33.534ZM287.293 38.2523C288.572 39.3988 290.325 39.94 292.487 39.94V38.94C290.488 38.94 289.002 38.4412 287.96 37.5077L287.293 38.2523ZM292.487 39.94C295.622 39.94 297.811 38.9416 298.765 36.7604L297.849 36.3596C297.123 38.0184 295.432 38.94 292.487 38.94V39.94ZM298.307 37.06H308.267V36.06H298.307V37.06ZM307.778 36.4552C307.314 38.6181 306.389 40.5454 305 42.2434L305.774 42.8766C307.264 41.0546 308.259 38.9819 308.756 36.6648L307.778 36.4552ZM304.995 42.2487C303.648 43.9423 301.913 45.275 299.78 46.2448L300.194 47.1552C302.46 46.125 304.325 44.6977 305.778 42.8713L304.995 42.2487ZM299.777 46.2463C297.694 47.2105 295.268 47.7 292.487 47.7V48.7C295.385 48.7 297.959 48.1895 300.197 47.1537L299.777 46.2463ZM292.127 20.94C290.224 20.94 288.602 21.4928 287.299 22.6222L287.954 23.3778C289.051 22.4272 290.43 21.94 292.127 21.94V20.94ZM287.3 22.6213C286.026 23.7193 285.227 25.3596 284.854 27.4731L285.839 27.6469C286.186 25.6804 286.907 24.2807 287.953 23.3787L287.3 22.6213ZM285.347 28.06H298.607V27.06H285.347V28.06ZM299.1 27.4778C298.749 25.3715 298.005 23.7258 296.82 22.6065C295.627 21.48 294.044 20.94 292.127 20.94V21.94C293.849 21.94 295.166 22.42 296.133 23.3335C297.108 24.2542 297.785 25.6685 298.113 27.6422L299.1 27.4778ZM316.722 45.08L316.398 45.4602L316.405 45.4664L316.722 45.08ZM315.402 31.28L315.78 31.6079L315.784 31.603L315.402 31.28ZM320.862 27.86L321.011 28.3375L320.862 27.86ZM334.062 26.78V27.28H334.576L334.562 26.7668L334.062 26.78ZM332.922 23.48L332.559 23.8233L332.569 23.8337L332.579 23.8435L332.922 23.48ZM326.202 22.46L326.216 22.9598L326.202 22.46ZM321.522 22.64L321.547 23.1394L321.522 22.64ZM317.022 22.88H316.522V23.4103L317.052 23.3791L317.022 22.88ZM317.022 13.76L316.981 13.2617L316.522 13.2999V13.76H317.022ZM320.442 13.52L320.412 13.0209L320.442 13.52ZM324.522 13.34L324.509 12.8402L324.508 12.8402L324.522 13.34ZM340.302 16.64L339.987 17.0282L339.99 17.0304L340.302 16.64ZM344.503 47V47.5H345.003V47H344.503ZM335.862 47H335.362V47.5H335.862V47ZM335.862 40.88H336.362L335.386 40.727L335.862 40.88ZM332.142 46.04L332.424 46.4531L332.142 46.04ZM332.382 39.32L332.703 39.7041L332.704 39.7029L332.382 39.32ZM334.062 34.76L334.562 34.7872L334.562 34.7736V34.76H334.062ZM334.062 32.42H334.562V31.92H334.062V32.42ZM325.422 33.56L325.757 33.9318L325.767 33.9225L325.422 33.56ZM325.422 39.44L325.078 39.8026L325.088 39.8116L325.422 39.44ZM325.362 47.34C321.933 47.34 319.172 46.4454 317.04 44.6936L316.405 45.4664C318.753 47.3946 321.752 48.34 325.362 48.34V47.34ZM317.047 44.6999C314.975 42.9294 313.922 40.4778 313.922 37.28H312.922C312.922 40.7222 314.069 43.4706 316.398 45.4601L317.047 44.6999ZM313.922 37.28C313.922 34.8914 314.556 33.0171 315.78 31.6078L315.025 30.9522C313.609 32.5829 312.922 34.7086 312.922 37.28H313.922ZM315.784 31.603C317.032 30.1284 318.764 29.0347 321.011 28.3375L320.714 27.3825C318.321 28.1253 316.413 29.3116 315.021 30.957L315.784 31.603ZM321.011 28.3375C323.273 27.6354 325.881 27.28 328.842 27.28V26.28C325.804 26.28 323.092 26.6446 320.714 27.3825L321.011 28.3375ZM328.842 27.28H334.062V26.28H328.842V27.28ZM334.562 26.7668C334.521 25.1836 334.124 23.9266 333.266 23.1165L332.579 23.8435C333.161 24.3934 333.524 25.3364 333.563 26.7932L334.562 26.7668ZM333.286 23.1367C332.469 22.2717 331.183 21.9 329.562 21.9V22.9C331.062 22.9 332.016 23.2483 332.559 23.8233L333.286 23.1367ZM329.562 21.9C328.796 21.9 327.67 21.9202 326.189 21.9602L326.216 22.9598C327.695 22.9198 328.809 22.9 329.562 22.9V21.9ZM326.189 21.9602C324.705 22.0003 323.141 22.0604 321.498 22.1406L321.547 23.1394C323.184 23.0596 324.74 22.9997 326.216 22.9598L326.189 21.9602ZM321.498 22.1406C319.857 22.2207 318.355 22.3007 316.993 22.3809L317.052 23.3791C318.41 23.2993 319.908 23.2193 321.547 23.1394L321.498 22.1406ZM317.522 22.88V13.76H316.522V22.88H317.522ZM317.064 14.2583C318.019 14.1787 319.155 14.0989 320.473 14.0191L320.412 13.0209C319.09 13.1011 317.946 13.1813 316.981 13.2617L317.064 14.2583ZM320.473 14.0191C321.787 13.9394 323.142 13.8797 324.537 13.8398L324.508 12.8402C323.103 12.8803 321.738 12.9406 320.412 13.0209L320.473 14.0191ZM324.536 13.8398C325.973 13.7999 327.288 13.78 328.482 13.78V12.78C327.277 12.78 325.952 12.8001 324.509 12.8402L324.536 13.8398ZM328.482 13.78C333.537 13.78 337.348 14.8864 339.987 17.0282L340.618 16.2518C337.737 13.9136 333.668 12.78 328.482 12.78V13.78ZM339.99 17.0304C342.639 19.1498 344.003 22.4052 344.003 26.9H345.003C345.003 22.1948 343.566 18.6102 340.615 16.2496L339.99 17.0304ZM344.003 26.9V47H345.003V26.9H344.003ZM344.503 46.5H335.862V47.5H344.503V46.5ZM336.362 47V40.88H335.362V47H336.362ZM335.386 40.727C334.697 42.8728 333.519 44.4962 331.861 45.6269L332.424 46.4531C334.286 45.1838 335.588 43.3672 336.339 41.033L335.386 40.727ZM331.861 45.6269C330.205 46.7557 328.051 47.34 325.362 47.34V48.34C328.193 48.34 330.56 47.7243 332.424 46.4531L331.861 45.6269ZM328.842 41.02C330.344 41.02 331.642 40.5881 332.703 39.7041L332.062 38.9359C331.203 39.6519 330.141 40.02 328.842 40.02V41.02ZM332.704 39.7029C333.863 38.7291 334.439 37.0352 334.562 34.7872L333.563 34.7328C333.446 36.8848 332.902 38.2309 332.061 38.9371L332.704 39.7029ZM334.562 34.76V32.42H333.562V34.76H334.562ZM334.062 31.92H328.842V32.92H334.062V31.92ZM328.842 31.92C327.279 31.92 325.999 32.3226 325.078 33.1975L325.767 33.9225C326.446 33.2774 327.446 32.92 328.842 32.92V31.92ZM325.088 33.1884C324.166 34.018 323.723 35.142 323.723 36.5H324.723C324.723 35.378 325.079 34.542 325.757 33.9316L325.088 33.1884ZM323.723 36.5C323.723 37.8237 324.169 38.9393 325.078 39.8025L325.767 39.0775C325.076 38.4207 324.723 37.5763 324.723 36.5H323.723ZM325.088 39.8116C326.009 40.6409 327.286 41.02 328.842 41.02V40.02C327.439 40.02 326.436 39.6791 325.757 39.0684L325.088 39.8116ZM360.619 46.82L360.413 47.2755L360.42 47.2787L360.619 46.82ZM355.279 42.98L354.903 43.3093L354.907 43.3145L355.279 42.98ZM352.099 37.52L351.625 37.6781L351.628 37.6864L352.099 37.52ZM352.999 21.44L352.552 21.2164L352.55 21.2192L352.999 21.44ZM358.759 15.08L358.494 14.656L358.491 14.6579L358.759 15.08ZM376.159 14.48L376.389 14.0359L376.159 14.48ZM381.679 19.46L381.258 19.73L381.264 19.7392L381.679 19.46ZM384.019 26.66V27.16H384.549L384.518 26.6306L384.019 26.66ZM373.339 26.66L372.841 26.7053L372.882 27.16H373.339V26.66ZM371.839 23.3L371.47 23.6372L371.478 23.6456L371.839 23.3ZM363.499 24.32L363.92 24.5899L363.923 24.585L363.499 24.32ZM363.319 36.62L362.883 36.8657L362.888 36.874L363.319 36.62ZM371.959 37.64L371.613 37.2786L371.605 37.2864L371.959 37.64ZM373.579 34.04V33.54H373.129L373.082 33.9877L373.579 34.04ZM384.259 34.04L384.758 34.0685L384.788 33.54H384.259V34.04ZM381.859 41.42L381.445 41.139L381.442 41.1445L381.859 41.42ZM376.219 46.4L375.992 45.9543L376.219 46.4ZM368.119 47.7C365.291 47.7 362.862 47.2482 360.818 46.3613L360.42 47.2787C362.616 48.2318 365.187 48.7 368.119 48.7V47.7ZM360.825 46.3645C358.763 45.4307 357.041 44.1901 355.651 42.6455L354.907 43.3145C356.397 44.9699 358.235 46.2893 360.413 47.2755L360.825 46.3645ZM355.655 42.6507C354.298 41.0993 353.27 39.3348 352.571 37.3536L351.628 37.6864C352.368 39.7852 353.46 41.6607 354.903 43.3093L355.655 42.6507ZM352.573 37.3619C351.911 35.3741 351.579 33.3075 351.579 31.16H350.579C350.579 33.4125 350.927 35.5859 351.625 37.6781L352.573 37.3619ZM351.579 31.16V29.96H350.579V31.16H351.579ZM351.579 29.96C351.579 26.9517 352.204 24.1878 353.448 21.6608L352.55 21.2192C351.235 23.8921 350.579 26.8083 350.579 29.96H351.579ZM353.446 21.6636C354.725 19.1058 356.583 17.054 359.027 15.5021L358.491 14.6579C355.895 16.306 353.913 18.4942 352.552 21.2164L353.446 21.6636ZM359.024 15.504C361.489 13.9636 364.512 13.18 368.119 13.18V12.18C364.366 12.18 361.149 12.9964 358.494 14.656L359.024 15.504ZM368.119 13.18C371.092 13.18 373.691 13.7664 375.929 14.9241L376.389 14.0359C373.987 12.7936 371.226 12.18 368.119 12.18V13.18ZM375.929 14.9241C378.174 16.0854 379.947 17.6866 381.258 19.73L382.1 19.19C380.691 16.9934 378.784 15.2746 376.389 14.0359L375.929 14.9241ZM381.264 19.7392C382.61 21.7386 383.365 24.0507 383.52 26.6894L384.518 26.6306C384.353 23.8293 383.548 21.3414 382.094 19.1808L381.264 19.7392ZM384.019 26.16H373.339V27.16H384.019V26.16ZM373.837 26.6147C373.707 25.187 373.162 23.9597 372.2 22.9544L371.478 23.6456C372.276 24.4803 372.731 25.493 372.841 26.7053L373.837 26.6147ZM372.208 22.9629C371.246 21.909 369.853 21.42 368.119 21.42V22.42C369.665 22.42 370.752 22.851 371.47 23.6371L372.208 22.9629ZM368.119 21.42C365.888 21.42 364.177 22.2918 363.075 24.055L363.923 24.585C364.821 23.1482 366.19 22.42 368.119 22.42V21.42ZM363.078 24.0502C362.01 25.717 361.499 27.9013 361.499 30.56H362.499C362.499 28.0187 362.988 26.043 363.92 24.5898L363.078 24.0502ZM361.499 30.56C361.499 33.0946 361.948 35.2073 362.884 36.8657L363.755 36.3743C362.93 34.9127 362.499 32.9854 362.499 30.56H361.499ZM362.888 36.874C363.922 38.6272 365.715 39.46 368.119 39.46V38.46C365.963 38.46 364.556 37.7328 363.75 36.366L362.888 36.874ZM368.119 39.46C369.884 39.46 371.31 38.9964 372.313 37.9936L371.605 37.2864C370.848 38.0436 369.714 38.46 368.119 38.46V39.46ZM372.305 38.0013C373.327 37.0239 373.907 35.7054 374.076 34.0923L373.082 33.9877C372.932 35.4146 372.432 36.4961 371.613 37.2787L372.305 38.0013ZM373.579 34.54H384.259V33.54H373.579V34.54ZM383.76 34.0115C383.605 36.7299 382.83 39.1009 381.445 41.1391L382.273 41.7009C383.768 39.4991 384.594 36.9501 384.758 34.0685L383.76 34.0115ZM381.442 41.1445C380.092 43.1891 378.279 44.7918 375.992 45.9543L376.446 46.8457C378.88 45.6082 380.827 43.8909 382.276 41.6955L381.442 41.1445ZM375.992 45.9543C373.712 47.1136 371.092 47.7 368.119 47.7V48.7C371.226 48.7 374.006 48.0864 376.446 46.8457L375.992 45.9543ZM399.096 46.76L398.893 47.2169L399.096 46.76ZM393.636 42.86L394.007 42.525L393.636 42.86ZM390.216 37.34L389.747 37.5146L389.75 37.5225L390.216 37.34ZM390.216 23.42L389.749 23.2405L389.747 23.2454L390.216 23.42ZM393.576 17.9L393.209 17.5604L393.204 17.5655L393.576 17.9ZM398.976 14.12L399.175 14.5787L399.182 14.5755L398.976 14.12ZM415.236 15.08L414.965 15.5001L415.236 15.08ZM420.936 21.44L420.489 21.6636L420.49 21.6663L420.936 21.44ZM422.916 33.44V33.94H423.416V33.44H422.916ZM399.396 33.44V32.94H398.791L398.905 33.534L399.396 33.44ZM401.676 37.88L401.335 38.246L401.342 38.2523L401.676 37.88ZM412.356 36.56V36.06H412.029L411.898 36.3596L412.356 36.56ZM422.316 36.56L422.805 36.6648L422.934 36.06H422.316V36.56ZM419.436 42.56L419.049 42.2434L419.045 42.2487L419.436 42.56ZM414.036 46.7L413.829 46.2448L413.826 46.2463L414.036 46.7ZM401.676 23L402.002 23.3787L402.003 23.3778L401.676 23ZM399.396 27.56L398.904 27.4731L398.8 28.06H399.396V27.56ZM412.656 27.56V28.06H413.246L413.149 27.4778L412.656 27.56ZM406.536 47.7C403.793 47.7 401.384 47.2299 399.299 46.3031L398.893 47.2169C401.128 48.2101 403.679 48.7 406.536 48.7V47.7ZM399.299 46.3031C397.198 45.3695 395.437 44.1095 394.007 42.525L393.265 43.195C394.795 44.8905 396.673 46.2305 398.893 47.2169L399.299 46.3031ZM394.007 42.525C392.567 40.9294 391.459 39.1409 390.681 37.1575L389.75 37.5225C390.573 39.6191 391.745 41.5106 393.265 43.195L394.007 42.525ZM390.684 37.1654C389.945 35.1808 389.576 33.1399 389.576 31.04H388.576C388.576 33.2601 388.967 35.4192 389.747 37.5146L390.684 37.1654ZM389.576 31.04V29.84H388.576V31.04H389.576ZM389.576 29.84C389.576 27.6578 389.946 25.5771 390.684 23.5946L389.747 23.2454C388.966 25.3429 388.576 27.5422 388.576 29.84H389.576ZM390.683 23.5995C391.461 21.5745 392.55 19.7875 393.948 18.2345L393.204 17.5655C391.722 19.2125 390.57 21.1055 389.749 23.2405L390.683 23.5995ZM393.943 18.2395C395.373 16.6935 397.115 15.4727 399.175 14.5787L398.777 13.6613C396.597 14.6073 394.739 15.9065 393.209 17.5605L393.943 18.2395ZM399.182 14.5755C401.228 13.6489 403.556 13.18 406.176 13.18V12.18C403.436 12.18 400.964 12.671 398.77 13.6645L399.182 14.5755ZM406.176 13.18C409.66 13.18 412.581 13.9622 414.965 15.5001L415.507 14.6599C412.931 12.9978 409.812 12.18 406.176 12.18V13.18ZM414.965 15.5001C417.37 17.0516 419.209 19.1037 420.489 21.6636L421.383 21.2164C420.023 18.4963 418.062 16.3084 415.507 14.6599L414.965 15.5001ZM420.49 21.6663C421.772 24.1923 422.416 26.9541 422.416 29.96H423.416C423.416 26.8059 422.739 23.8877 421.382 21.2137L420.49 21.6663ZM422.416 29.96V33.44H423.416V29.96H422.416ZM422.916 32.94H399.396V33.94H422.916V32.94ZM398.905 33.534C399.281 35.4962 400.082 37.0796 401.335 38.2459L402.017 37.5141C400.949 36.5204 400.231 35.1438 399.887 33.346L398.905 33.534ZM401.342 38.2523C402.621 39.3988 404.375 39.94 406.536 39.94V38.94C404.537 38.94 403.051 38.4412 402.01 37.5077L401.342 38.2523ZM406.536 39.94C409.671 39.94 411.86 38.9416 412.814 36.7604L411.898 36.3596C411.172 38.0184 409.481 38.94 406.536 38.94V39.94ZM412.356 37.06H422.316V36.06H412.356V37.06ZM421.827 36.4552C421.364 38.6181 420.438 40.5454 419.049 42.2434L419.823 42.8766C421.314 41.0546 422.308 38.9819 422.805 36.6648L421.827 36.4552ZM419.045 42.2487C417.698 43.9423 415.963 45.275 413.829 46.2448L414.243 47.1552C416.509 46.125 418.374 44.6977 419.827 42.8713L419.045 42.2487ZM413.826 46.2463C411.743 47.2105 409.317 47.7 406.536 47.7V48.7C409.435 48.7 412.009 48.1895 414.246 47.1537L413.826 46.2463ZM406.176 20.94C404.273 20.94 402.652 21.4928 401.348 22.6222L402.003 23.3778C403.1 22.4272 404.479 21.94 406.176 21.94V20.94ZM401.349 22.6213C400.076 23.7193 399.277 25.3596 398.904 27.4731L399.888 27.6469C400.235 25.6804 400.956 24.2807 402.002 23.3787L401.349 22.6213ZM399.396 28.06H412.656V27.06H399.396V28.06ZM413.149 27.4778C412.798 25.3715 412.054 23.7258 410.869 22.6065C409.677 21.48 408.093 20.94 406.176 20.94V21.94C407.899 21.94 409.215 22.42 410.183 23.3335C411.157 24.2542 411.834 25.6685 412.163 27.6422L413.149 27.4778Z" fill="#F6EBD7" fill-opacity="0.5" mask="url(#path-1-outside-1_3_1105)"/>
</svg>
